<?xml version="1.0" encoding="UTF-8"?>
<svg width="30px" height="30px" viewBox="0 0 30 30" version="1.1" xmlns="http://www.w3.org/2000/svg" xmlns:xlink="http://www.w3.org/1999/xlink">
    <!-- Generator: Sketch 49.1 (51147) - http://www.bohemiancoding.com/sketch -->
    <title>舆情分析</title>
    <desc>Created with Sketch.</desc>
    <defs></defs>
    <g id="企业舆情" stroke="none" stroke-width="1" fill="none" fill-rule="evenodd">
        <g id="企业舆情介绍页" transform="translate(-632.000000, -150.000000)">
            <g id="舆情分析" transform="translate(632.000000, 150.000000)">
                <rect id="Rectangle-4-Copy" fill="#FF8833" x="0.75" y="0.75" width="28.5" height="28.5" rx="14.25"></rect>
                <path d="M9,9 L21,9 C21.6213203,9 22.125,9.50367966 22.125,10.125 L22.125,19.125 C22.125,19.7463203 21.6213203,20.25 21,20.25 L18.3394218,20.25 C17.4115095,20.25 16.531535,20.662158 15.9375,21.375 L15.7682213,21.5781345 C15.4146572,22.0024114 14.7840925,22.0597354 14.3598156,21.7061713 C14.3133525,21.6674521 14.2704979,21.6245975 14.2317787,21.5781345 L14.0625,21.375 C13.468465,20.662158 12.5884905,20.25 11.6605782,20.25 L9,20.25 C8.37867966,20.25 7.875,19.7463203 7.875,19.125 L7.875,10.125 C7.875,9.50367966 8.37867966,9 9,9 Z M11.8125,13.125 C11.5018398,13.125 11.25,13.3768398 11.25,13.6875 C11.25,13.9981602 11.5018398,14.25 11.8125,14.25 L15.9375,14.25 C16.2481602,14.25 16.5,13.9981602 16.5,13.6875 C16.5,13.3768398 16.2481602,13.125 15.9375,13.125 L11.8125,13.125 Z M11.8125,15.75 C11.5018398,15.75 11.25,16.0018398 11.25,16.3125 C11.25,16.6231602 11.5018398,16.875 11.8125,16.875 L18.9375,16.875 C19.2481602,16.875 19.5,16.6231602 19.5,16.3125 C19.5,16.0018398 19.2481602,15.75 18.9375,15.75 L11.8125,15.75 Z" id="Combined-Shape" fill="#FFFFFF"></path>
            </g>
        </g>
    </g>
</svg>